<svg width="139" height="38" viewBox="0 0 139 38" fill="none" xmlns="http://www.w3.org/2000/svg">
<g filter="url(#filter0_d_1_4)">
<path d="M19.9175 14.6C21.5442 14.9467 22.8508 15.76 23.8375 17.04C24.8242 18.2933 25.3175 19.7333 25.3175 21.36C25.3175 23.7067 24.4908 25.5733 22.8375 26.96C21.2108 28.32 18.9308 29 15.9975 29H2.9175V0.919999H15.5575C18.4108 0.919999 20.6375 1.57333 22.2375 2.88C23.8642 4.18667 24.6775 5.96 24.6775 8.2C24.6775 9.85333 24.2375 11.2267 23.3575 12.32C22.5042 13.4133 21.3575 14.1733 19.9175 14.6ZM9.7575 12.28H14.2375C15.3575 12.28 16.2108 12.04 16.7975 11.56C17.4108 11.0533 17.7175 10.32 17.7175 9.36C17.7175 8.4 17.4108 7.66667 16.7975 7.16C16.2108 6.65333 15.3575 6.4 14.2375 6.4H9.7575V12.28ZM14.7975 23.48C15.9442 23.48 16.8242 23.2267 17.4375 22.72C18.0775 22.1867 18.3975 21.4267 18.3975 20.44C18.3975 19.4533 18.0642 18.68 17.3975 18.12C16.7575 17.56 15.8642 17.28 14.7175 17.28H9.7575V23.48H14.7975Z" fill="#AA0000"/>
<path d="M50.3247 17.48C50.3247 18.12 50.2847 18.7867 50.2047 19.48H34.7247C34.8314 20.8667 35.2714 21.9333 36.0447 22.68C36.8447 23.4 37.818 23.76 38.9647 23.76C40.6714 23.76 41.858 23.04 42.5247 21.6H49.8047C49.4314 23.0667 48.7514 24.3867 47.7647 25.56C46.8047 26.7333 45.5914 27.6533 44.1247 28.32C42.658 28.9867 41.018 29.32 39.2047 29.32C37.018 29.32 35.0714 28.8533 33.3647 27.92C31.658 26.9867 30.3247 25.6533 29.3647 23.92C28.4047 22.1867 27.9247 20.16 27.9247 17.84C27.9247 15.52 28.3914 13.4933 29.3247 11.76C30.2847 10.0267 31.618 8.69333 33.3247 7.76C35.0314 6.82667 36.9914 6.36 39.2047 6.36C41.3647 6.36 43.2847 6.81333 44.9647 7.72C46.6447 8.62667 47.9514 9.92 48.8847 11.6C49.8447 13.28 50.3247 15.24 50.3247 17.48ZM43.3247 15.68C43.3247 14.5067 42.9247 13.5733 42.1247 12.88C41.3247 12.1867 40.3247 11.84 39.1247 11.84C37.978 11.84 37.0047 12.1733 36.2047 12.84C35.4314 13.5067 34.9514 14.4533 34.7647 15.68H43.3247ZM67.5331 6.44C70.1465 6.44 72.2265 7.29333 73.7731 9C75.3465 10.68 76.1331 13 76.1331 15.96V29H69.3331V16.88C69.3331 15.3867 68.9465 14.2267 68.1731 13.4C67.3998 12.5733 66.3598 12.16 65.0531 12.16C63.7465 12.16 62.7065 12.5733 61.9331 13.4C61.1598 14.2267 60.7731 15.3867 60.7731 16.88V29H53.9331V6.68H60.7731V9.64C61.4665 8.65333 62.3998 7.88 63.5731 7.32C64.7465 6.73333 66.0665 6.44 67.5331 6.44ZM79.5263 17.84C79.5263 15.52 79.9929 13.4933 80.9263 11.76C81.8863 10.0267 83.2063 8.69333 84.8863 7.76C86.5929 6.82667 88.5396 6.36 90.7263 6.36C93.5263 6.36 95.8596 7.09333 97.7263 8.56C99.6196 10.0267 100.86 12.0933 101.446 14.76H94.1663C93.5529 13.0533 92.3663 12.2 90.6063 12.2C89.3529 12.2 88.3529 12.6933 87.6063 13.68C86.8596 14.64 86.4863 16.0267 86.4863 17.84C86.4863 19.6533 86.8596 21.0533 87.6063 22.04C88.3529 23 89.3529 23.48 90.6063 23.48C92.3663 23.48 93.5529 22.6267 94.1663 20.92H101.446C100.86 23.5333 99.6196 25.5867 97.7263 27.08C95.8329 28.5733 93.4996 29.32 90.7263 29.32C88.5396 29.32 86.5929 28.8533 84.8863 27.92C83.2063 26.9867 81.8863 25.6533 80.9263 23.92C79.9929 22.1867 79.5263 20.16 79.5263 17.84ZM126.145 17.48C126.145 18.12 126.105 18.7867 126.025 19.48H110.545C110.652 20.8667 111.092 21.9333 111.865 22.68C112.665 23.4 113.638 23.76 114.785 23.76C116.492 23.76 117.678 23.04 118.345 21.6H125.625C125.252 23.0667 124.572 24.3867 123.585 25.56C122.625 26.7333 121.412 27.6533 119.945 28.32C118.478 28.9867 116.838 29.32 115.025 29.32C112.838 29.32 110.892 28.8533 109.185 27.92C107.478 26.9867 106.145 25.6533 105.185 23.92C104.225 22.1867 103.745 20.16 103.745 17.84C103.745 15.52 104.212 13.4933 105.145 11.76C106.105 10.0267 107.438 8.69333 109.145 7.76C110.852 6.82667 112.812 6.36 115.025 6.36C117.185 6.36 119.105 6.81333 120.785 7.72C122.465 8.62667 123.772 9.92 124.705 11.6C125.665 13.28 126.145 15.24 126.145 17.48ZM119.145 15.68C119.145 14.5067 118.745 13.5733 117.945 12.88C117.145 12.1867 116.145 11.84 114.945 11.84C113.798 11.84 112.825 12.1733 112.025 12.84C111.252 13.5067 110.772 14.4533 110.585 15.68H119.145ZM132.953 29.32C131.753 29.32 130.767 28.9733 129.993 28.28C129.247 27.56 128.873 26.68 128.873 25.64C128.873 24.5733 129.247 23.68 129.993 22.96C130.767 22.24 131.753 21.88 132.953 21.88C134.127 21.88 135.087 22.24 135.833 22.96C136.607 23.68 136.993 24.5733 136.993 25.64C136.993 26.68 136.607 27.56 135.833 28.28C135.087 28.9733 134.127 29.32 132.953 29.32Z" fill="white"/>
</g>
<defs>
<filter id="filter0_d_1_4" x="-1.0825" y="0.920013" width="142.076" height="36.4" filterUnits="userSpaceOnUse" color-interpolation-filters="sRGB">
<feFlood flood-opacity="0" result="BackgroundImageFix"/>
<feColorMatrix in="SourceAlpha" type="matrix" values="0 0 0 0 0 0 0 0 0 0 0 0 0 0 0 0 0 0 127 0" result="hardAlpha"/>
<feOffset dy="4"/>
<feGaussianBlur stdDeviation="2"/>
<feComposite in2="hardAlpha" operator="out"/>
<feColorMatrix type="matrix" values="0 0 0 0 0 0 0 0 0 0 0 0 0 0 0 0 0 0 0.25 0"/>
<feBlend mode="normal" in2="BackgroundImageFix" result="effect1_dropShadow_1_4"/>
<feBlend mode="normal" in="SourceGraphic" in2="effect1_dropShadow_1_4" result="shape"/>
</filter>
</defs>
</svg>
